<svg width="125" height="125" viewBox="0 0 125 125" fill="none" xmlns="http://www.w3.org/2000/svg">
<g clip-path="url(#clip0_205_493)">
<path d="M19.3668 35.1268C19.0927 35.5503 18.7363 35.8782 18.3114 36.0968C17.8865 36.3154 17.4205 36.4111 16.9271 36.3974C16.4337 36.3837 15.9677 36.2335 15.5291 35.9465C15.1042 35.6733 14.7752 35.3181 14.5422 34.9082C14.3229 34.4846 14.2133 34.0338 14.2407 33.5419C14.2681 33.0637 14.4189 32.5992 14.693 32.1483C14.9808 31.6974 15.3372 31.3559 15.7621 31.1373C16.187 30.9187 16.6393 30.8094 17.119 30.8367C17.5987 30.864 18.0647 31.0143 18.517 31.3012C18.9693 31.5881 19.2982 31.9434 19.5175 32.3806C19.7368 32.8178 19.8328 33.2687 19.8054 33.7468C19.778 34.225 19.6272 34.6759 19.3668 35.0995V35.1268Z" fill="#F04E98"/>
<path d="M32.0038 24.2513L29.2215 20.576L20.2714 16.3132L22.5192 14.6191L28.2484 17.4882L28.5225 17.2833L27.3163 10.9985L29.5641 9.30428L31.2226 19.0594L34.0049 22.7347L31.9764 24.2513H32.0038Z" fill="#0077CC"/>
<path d="M42.722 18.0894C41.1732 18.7725 39.7615 18.8955 38.4731 18.4583C37.1848 18.0211 36.1842 17.01 35.4852 15.4388L34.1694 12.5014C33.4704 10.9301 33.3882 9.52289 33.9227 8.26592C34.4572 7.02261 35.4989 6.05256 37.034 5.36943C38.5828 4.68629 39.9945 4.56333 41.2829 5.00053C42.5713 5.43774 43.5718 6.44878 44.2708 8.01999L45.5866 10.9575C46.2856 12.5287 46.3679 13.9359 45.8333 15.1929C45.2988 16.4362 44.2571 17.4063 42.722 18.0894ZM41.8037 16.0263C42.6672 15.6438 43.2292 15.0973 43.4896 14.3868C43.75 13.6763 43.6815 12.8976 43.3114 12.0641L41.9408 8.99004C41.5707 8.15662 41.0225 7.58278 40.3235 7.29587C39.6245 7.00895 38.8432 7.04994 37.966 7.43249C37.1162 7.81505 36.5543 8.36156 36.2939 9.07202C36.0334 9.78248 36.0883 10.5613 36.4583 11.4083L37.8289 14.4824C38.199 15.3159 38.7473 15.8897 39.46 16.163C40.1727 16.4499 40.9539 16.4089 41.8037 16.0263Z" fill="#0077CC"/>
<path d="M54.2489 14.6191C53.1661 14.7967 52.2067 14.7694 51.3569 14.4961C50.5071 14.2365 49.8218 13.772 49.2873 13.1025C48.7527 12.433 48.3964 11.5996 48.2319 10.6022L46.7654 2.03573L49.2599 1.61219L50.7401 10.247C50.8772 11.0531 51.2198 11.6543 51.7544 12.0368C52.2889 12.4194 53.0016 12.5423 53.8651 12.3921C54.7423 12.2418 55.3591 11.9002 55.7429 11.3537C56.1266 10.8072 56.25 10.1377 56.1129 9.33161L54.6327 0.696785L57.1272 0.273241L58.5938 8.83975C58.7719 9.85079 58.7034 10.7525 58.4293 11.5586C58.1552 12.3647 57.648 13.0342 56.9353 13.5534C56.2226 14.0862 55.3317 14.4415 54.2489 14.6191Z" fill="#0077CC"/>
<path d="M61.6776 6.12088L61.705 4.82292H62.4589C63.0482 4.85024 63.3498 4.54966 63.3498 3.97583V3.36101H63.0345C62.5274 3.36101 62.1025 3.19706 61.7599 2.88282C61.4309 2.56857 61.2664 2.18602 61.2664 1.70782C61.2664 1.2023 61.4446 0.792424 61.801 0.478182C62.1436 0.16394 62.5685 0.01365 63.0894 0.0273127C63.6102 0.0273127 64.0351 0.204928 64.364 0.532832C64.693 0.860737 64.8438 1.29794 64.8438 1.84445L64.8026 4.04415C64.7752 5.47873 64.0488 6.17553 62.6234 6.1482H61.6776V6.12088Z" fill="#0077CC"/>
<path d="M66.42 13.567L68.7637 0.396205L74.5066 1.42091C75.3427 1.5712 76.0417 1.84445 76.6036 2.24067C77.1656 2.63689 77.5768 3.12874 77.8235 3.71624C78.0702 4.30374 78.125 4.95955 78.0016 5.67001L77.9605 5.90227C77.8235 6.69471 77.5219 7.29587 77.0559 7.71941C76.5899 8.14295 76.0554 8.41621 75.466 8.53917L75.4112 8.88074C75.9046 8.99004 76.2747 9.23597 76.494 9.60486C76.7133 9.97376 76.7818 10.4246 76.6859 10.9438L75.9183 15.2612L73.4238 14.824L74.1228 10.8755C74.1776 10.5749 74.1365 10.3153 74.0132 10.0967C73.8898 9.87812 73.6431 9.74149 73.273 9.67318L69.7917 9.05835L68.9008 14.0316L66.4062 13.5944L66.42 13.567ZM70.2029 6.77668L73.1908 7.30953C73.7802 7.41883 74.2736 7.33685 74.6711 7.07726C75.0685 6.81767 75.3015 6.42145 75.3975 5.88861L75.4249 5.69733C75.5208 5.16449 75.4249 4.71362 75.1645 4.34472C74.8904 3.96217 74.4518 3.7299 73.8487 3.6206L70.8607 3.08776L70.2029 6.77668Z" fill="#0077CC"/>
<path d="M77.6042 15.8351L82.7714 3.47031L90.7484 6.77668L89.8575 8.8944L84.2242 6.55808L82.9907 9.50922L88.1305 11.6406L87.2396 13.7583L82.0998 11.6269L80.8251 14.6874L86.568 17.0647L85.6771 19.1824L77.6042 15.8214V15.8351Z" fill="#0077CC"/>
<path d="M90.6524 22.5024L98.6568 11.7499L100.685 13.2528L92.6809 24.0053L90.6524 22.5024Z" fill="#0077CC"/>
<path d="M94.4079 25.071L104.126 15.8351L107.442 19.3054L100.809 29.2791L101.042 29.5251L109.512 21.4777L111.239 23.2812L101.521 32.5172L98.2045 29.0469L104.838 19.0731L104.605 18.8272L96.1349 26.8745L94.4079 25.071Z" fill="#0077CC"/>
<path d="M103.81 36.1242L113.706 26.451L115.022 28.7053L106.25 37.0669L106.387 37.2991L118.024 33.8425L119.339 36.0968L106.003 39.8814L103.824 36.1378L103.81 36.1242Z" fill="#0077CC"/>
<path d="M107.854 43.9256L120.408 39.1573L121.313 41.5209L108.758 46.2892L107.854 43.9256Z" fill="#0077CC"/>
<path d="M110.197 51.1941L121.094 48.9124L120.285 45.0869L122.533 44.6224L124.657 54.7327L122.41 55.1973L121.601 51.3717L110.704 53.6534L110.184 51.1804L110.197 51.1941Z" fill="#0077CC"/>
<path d="M111.568 58.5037L125 58.7223L124.863 67.3298L122.56 67.2888L122.656 61.2089L119.449 61.1542L119.353 66.7013L117.05 66.6603L117.146 61.1132L113.83 61.0586L113.734 67.2614L111.431 67.2205L111.568 58.5037Z" fill="#0077CC"/>
<path d="M111.499 68.1085L113.665 68.6004L113.268 70.3219L122.026 72.3166L122.423 70.5951L124.589 71.087L123.355 76.4564C122.958 78.2053 122.204 79.4349 121.094 80.1454C119.984 80.8558 118.558 81.0061 116.804 80.6099L114.337 80.0497C112.582 79.6535 111.362 78.8884 110.677 77.7681C109.992 76.6477 109.855 75.2131 110.252 73.4643L111.486 68.0949L111.499 68.1085ZM112.788 72.7948L112.5 74.0245C112.267 75.0219 112.363 75.8006 112.788 76.3881C113.199 76.962 113.884 77.3718 114.83 77.5768L117.448 78.1779C118.407 78.3965 119.202 78.3419 119.819 78.0003C120.436 77.6588 120.874 76.9893 121.094 75.9919L121.382 74.7623L112.774 72.7948H112.788Z" fill="#0077CC"/>
<path d="M105.332 90.3514C105.606 89.9278 105.962 89.5999 106.401 89.395C106.826 89.1764 107.292 89.0808 107.785 89.1081C108.279 89.1354 108.745 89.2857 109.183 89.5726C109.608 89.8459 109.937 90.2011 110.156 90.6246C110.376 91.0482 110.471 91.4991 110.444 91.9909C110.417 92.4691 110.252 92.9336 109.978 93.3708C109.69 93.8217 109.32 94.1496 108.895 94.3682C108.47 94.5868 108.018 94.6825 107.538 94.6551C107.059 94.6278 106.593 94.4639 106.154 94.1769C105.715 93.89 105.373 93.5211 105.167 93.0839C104.962 92.6467 104.866 92.1959 104.893 91.704C104.921 91.2258 105.085 90.7749 105.345 90.3514H105.332Z" fill="#F04E98"/>
<path d="M93.1195 100.653L95.9156 104.328L104.879 108.564L102.632 110.258L96.8887 107.402L96.6146 107.607L97.8344 113.892L95.5866 115.586L93.9008 105.845L91.1047 102.17L93.1195 100.639V100.653Z" fill="#0077CC"/>
<path d="M82.3876 106.856C83.9227 106.173 85.3481 106.05 86.6365 106.487C87.9249 106.924 88.9254 107.935 89.6245 109.506L90.9402 112.444C91.6393 114.015 91.7352 115.422 91.2007 116.679C90.6661 117.923 89.6382 118.893 88.0894 119.59C86.5406 120.286 85.1288 120.396 83.8405 119.958C82.5521 119.521 81.5515 118.51 80.8525 116.939L79.5367 114.002C78.824 112.43 78.7418 111.023 79.2763 109.766C79.8109 108.509 80.8388 107.553 82.3876 106.856ZM83.3059 108.919C82.4424 109.302 81.8805 109.848 81.6338 110.572C81.3734 111.283 81.4419 112.061 81.812 112.895L83.1963 115.969C83.5663 116.802 84.1146 117.363 84.8136 117.663C85.5126 117.95 86.2939 117.895 87.1711 117.513C88.0208 117.13 88.5828 116.584 88.8432 115.873C89.1036 115.163 89.0488 114.384 88.665 113.537L87.2807 110.463C86.9106 109.629 86.3624 109.069 85.6497 108.782C84.937 108.495 84.1557 108.55 83.3059 108.933V108.919Z" fill="#0077CC"/>
<path d="M70.9019 110.354C71.9847 110.162 72.9441 110.203 73.7939 110.463C74.6436 110.722 75.3289 111.187 75.8635 111.856C76.398 112.526 76.7544 113.359 76.9326 114.357L78.4265 122.91L75.932 123.347L74.4243 114.712C74.2873 113.906 73.9446 113.318 73.3964 112.922C72.8481 112.54 72.1491 112.417 71.2856 112.567C70.4221 112.717 69.7917 113.059 69.4079 113.605C69.0241 114.152 68.9145 114.821 69.0515 115.627L70.5592 124.262L68.0647 124.699L66.5707 116.147C66.3925 115.136 66.4474 114.234 66.7352 113.428C67.023 112.622 67.5165 111.952 68.2155 111.419C68.9145 110.886 69.8191 110.531 70.9019 110.34V110.354Z" fill="#0077CC"/>
<path d="M63.528 118.879L63.5006 120.177H62.7467C62.1573 120.15 61.8558 120.45 61.8558 121.024V121.639H62.1711C62.6782 121.639 63.1031 121.803 63.4457 122.117C63.7747 122.431 63.9392 122.814 63.9392 123.292C63.9392 123.798 63.761 124.208 63.4046 124.522C63.062 124.836 62.6371 124.986 62.1162 124.973C61.5954 124.973 61.1705 124.795 60.8416 124.467C60.5126 124.139 60.3618 123.702 60.3618 123.156L60.403 120.956C60.4304 119.521 61.1568 118.824 62.5822 118.852H63.528V118.879Z" fill="#0077CC"/>
<path d="M58.7445 111.433L56.4282 124.617L50.6853 123.62C49.8492 123.47 49.1502 123.21 48.5883 122.814C48.0263 122.418 47.6151 121.926 47.3684 121.338C47.1217 120.751 47.0532 120.095 47.1902 119.385L47.2314 119.152C47.3684 118.36 47.67 117.759 48.136 117.335C48.602 116.912 49.1228 116.638 49.7259 116.502L49.7807 116.16C49.2873 116.051 48.9172 115.805 48.6979 115.436C48.4786 115.067 48.4101 114.616 48.506 114.097L49.2599 109.78L51.7544 110.217L51.0554 114.179C51.0005 114.48 51.0417 114.739 51.165 114.958C51.2884 115.177 51.5351 115.313 51.9052 115.381L55.3865 115.983L56.2637 111.009L58.7582 111.447L58.7445 111.433ZM54.9753 118.237L51.9874 117.718C51.398 117.608 50.9046 117.69 50.5208 117.95C50.1371 118.21 49.8904 118.606 49.7944 119.139L49.767 119.33C49.6711 119.863 49.767 120.314 50.0411 120.683C50.3152 121.065 50.7538 121.297 51.3569 121.407L54.3449 121.926L54.989 118.237H54.9753Z" fill="#0077CC"/>
<path d="M47.5466 109.206L42.4205 121.584L34.4435 118.292L35.3207 116.174L40.9539 118.497L42.1738 115.545L37.034 113.428L37.9112 111.31L43.051 113.428L44.312 110.367L38.5691 108.004L39.4463 105.886L47.5329 109.22L47.5466 109.206Z" fill="#0077CC"/>
<path d="M34.4709 102.58L26.494 113.359L24.4518 111.856L32.4287 101.077L34.4709 102.58Z" fill="#0077CC"/>
<path d="M30.7155 100.011L21.0252 109.274L17.6946 105.804L24.301 95.8028L24.068 95.5569L15.625 103.632L13.898 101.842L23.5883 92.5784L26.9189 96.0487L20.3125 106.05L20.5455 106.296L28.9885 98.2211L30.7155 100.011Z" fill="#0077CC"/>
<path d="M21.2719 88.9988L11.4035 98.6993L10.0877 96.4586L18.8459 88.0697L18.7089 87.8375L7.08607 91.3351L5.77029 89.0944L19.0927 85.2689L21.2856 88.9988H21.2719Z" fill="#0077CC"/>
<path d="M17.2149 81.2111L4.67379 86.0203L3.76919 83.6703L16.3103 78.8611L17.2149 81.2111Z" fill="#0077CC"/>
<path d="M14.8438 73.9425L3.96108 76.2515L4.76974 80.0634L2.52193 80.5416L0.370066 70.4449L2.61787 69.9667L3.42654 73.7785L14.3092 71.4696L14.83 73.9425H14.8438Z" fill="#0077CC"/>
<path d="M13.5691 66.5783L0.137061 66.7969L0 58.1894L2.30263 58.1484L2.39857 64.2283L5.60581 64.1737L5.50987 58.6266L7.8125 58.5856L7.90844 64.1327L11.2253 64.078L11.1294 57.8752L13.432 57.8342L13.5691 66.551V66.5783Z" fill="#0077CC"/>
<path d="M13.5005 57.0417L11.335 56.5499L11.7188 54.8284L2.96053 52.861L2.57675 54.5825L0.411184 54.0906L1.63103 48.7212C2.02851 46.9723 2.78235 45.729 3.87884 45.0186C4.97533 44.3081 6.41447 44.1442 8.16886 44.5404L10.636 45.1005C12.3904 45.4968 13.6239 46.2482 14.3092 47.3685C14.9945 48.4889 15.1316 49.9235 14.7341 51.6723L13.5143 57.0417H13.5005ZM12.1985 52.3554L12.4726 51.1258C12.6919 50.1284 12.5959 49.3496 12.1848 48.7621C11.7599 48.1883 11.0746 47.7921 10.1288 47.5735L7.51096 46.986C6.55154 46.7674 5.75658 46.8357 5.1398 47.1773C4.52303 47.5188 4.09814 48.1883 3.86513 49.1857L3.59101 50.4153L12.1985 52.3554Z" fill="#0077CC"/>
</g>
<defs>
<clipPath id="clip0_205_493">
<rect width="125" height="125" fill="white"/>
</clipPath>
</defs>
</svg>
