<svg width="209" height="50" viewBox="0 0 209 50" fill="none" xmlns="http://www.w3.org/2000/svg">
<path d="M132.883 11.6793H132.227V38.6134H132.883V11.6793Z" fill="white" stroke="white" stroke-width="1.9268" stroke-miterlimit="10"/>
<g filter="url(#filter0_d_267_493)">
<path d="M189.055 20.5786L180.951 12.5143L172.767 20.7574L172.728 20.7971V37.184L180.951 29.0601L180.971 29.0799L181.09 28.9608L189.035 36.7867L197 28.921V12.7328L189.055 20.5786ZM195.312 28.2457L189.015 34.4628L183.314 28.8416L190.127 21.8896L195.312 16.765V28.2457Z" fill="white"/>
</g>
<g filter="url(#filter1_d_267_493)">
<path d="M170.026 24.3328C169.708 18.2746 165.021 13.3685 159.042 12.7527C159.022 12.7527 159.022 12.7527 159.002 12.7527C158.963 12.7527 158.923 12.7527 158.863 12.7329C155.368 12.4349 151.752 13.6267 149.071 16.2883C146.171 19.1684 144.999 23.1211 145.535 26.8752C146.429 32.7546 151.474 37.2635 157.612 37.3231C160.77 37.3231 163.928 36.1115 166.352 33.708C168.954 31.1457 170.165 27.7095 170.026 24.3328ZM157.552 35.6149C155.268 35.6149 153.083 34.88 151.276 33.569L166.312 18.652C169.331 22.8629 168.934 28.7622 165.14 32.5163C163.114 34.5224 160.413 35.6149 157.552 35.6149Z" fill="white"/>
</g>
<path d="M41.3347 24.5711C41.3347 21.1149 39.1895 18.0759 35.9518 16.904C36.0909 16.1691 36.1703 15.4342 36.1703 14.6794C36.1703 8.2438 30.9265 3 24.4909 3C20.7368 3 17.2211 4.80752 15.0163 7.84654C13.9437 7.0123 12.6129 6.55545 11.2225 6.55545C7.80611 6.55545 5.02531 9.33626 5.02531 12.7527C5.02531 13.5075 5.16435 14.2225 5.42257 14.9177C2.20478 16.0698 0 19.1882 0 22.6245C0 26.1005 2.16505 29.1594 5.4027 30.3313C5.26366 31.0464 5.18421 31.8012 5.18421 32.556C5.18421 38.9915 10.4081 44.2155 16.8437 44.2155C20.6177 44.2155 24.1135 42.4079 26.2985 39.3491C27.3909 40.2032 28.7217 40.6799 30.0923 40.6799C33.5087 40.6799 36.2895 37.8991 36.2895 34.4827C36.2895 33.7279 36.1504 32.9929 35.8922 32.3176C39.1299 31.1258 41.3347 28.0272 41.3347 24.5711Z" fill="white"/>
<path d="M16.2279 20.7382L25.2854 24.8696L34.4223 16.8649C34.5613 16.2094 34.6209 15.5539 34.6209 14.8587C34.6209 9.23756 30.0525 4.64923 24.4114 4.64923C21.0347 4.64923 17.8964 6.29785 15.9896 9.07865L14.48 16.9642L16.2279 20.7382Z" fill="#FEC514"/>
<path d="M6.87295 30.3115C6.73391 30.9669 6.67432 31.6621 6.67432 32.3573C6.67432 37.9984 11.2626 42.5867 16.9037 42.5867C20.3002 42.5867 23.4584 40.9182 25.3653 38.0977L26.8749 30.2519L24.8488 26.4183L15.7715 22.2869L6.87295 30.3115Z" fill="#00BFB3"/>
<path d="M6.81308 14.6588L13.0103 16.1286L14.361 9.07731C13.5069 8.42184 12.474 8.08417 11.4014 8.08417C8.70005 8.08417 6.51514 10.2691 6.51514 12.9704C6.51514 13.5465 6.61445 14.1225 6.81308 14.6588Z" fill="#F04E98"/>
<path d="M6.27675 16.1294C3.51581 17.0431 1.58911 19.7047 1.58911 22.6246C1.58911 25.4649 3.35691 28.0074 5.97881 29.0204L14.6787 21.1547L13.0897 17.7383L6.27675 16.1294Z" fill="#1BA9F5"/>
<path d="M26.9541 38.0977C27.8082 38.7532 28.8411 39.1107 29.9137 39.1107C32.615 39.1107 34.7999 36.9258 34.7999 34.2245C34.7999 33.6286 34.7006 33.0526 34.502 32.5163L28.3048 31.0663L26.9541 38.0977Z" fill="#93C90E"/>
<path d="M28.2055 29.4573L35.0184 31.0463C37.7992 30.1326 39.7259 27.471 39.7259 24.5512C39.7259 21.7108 37.9581 19.1683 35.3164 18.1752L26.3979 25.9813L28.2055 29.4573Z" fill="#0077CC"/>
<path d="M57.8008 31.9402L58.635 31.8607L58.6946 33.5491C56.5296 33.847 54.6823 34.0059 53.133 34.0059C51.0871 34.0059 49.6371 33.41 48.783 32.2182C47.9289 31.0265 47.4919 29.1792 47.4919 26.6765C47.4919 21.6909 49.4782 19.1882 53.4508 19.1882C55.3775 19.1882 56.8076 19.7245 57.7611 20.7971C58.7145 21.8697 59.1912 23.558 59.1912 25.8621L59.072 27.4909H49.6769C49.6769 29.06 49.9549 30.232 50.531 30.9867C51.107 31.7415 52.1001 32.1189 53.5104 32.1189C54.9008 32.0991 56.3309 32.0395 57.8008 31.9402ZM57.0261 25.743C57.0261 23.995 56.748 22.7635 56.1919 22.0485C55.6357 21.3334 54.722 20.956 53.4508 20.956C52.1796 20.956 51.246 21.3334 50.6104 22.0882C49.9748 22.843 49.6371 24.0546 49.6371 25.743H57.0261Z" fill="white"/>
<path d="M62.1506 33.8669V15.1164H64.2958V33.8669H62.1506Z" fill="white"/>
<path d="M77.743 23.757V30.9473C77.743 31.6624 79.5108 31.6227 79.5108 31.6227L79.4114 33.5097C77.9019 33.5097 76.6704 33.6288 75.9156 32.9138C74.2074 33.6686 72.4992 33.9864 70.791 33.9864C69.48 33.9864 68.4869 33.609 67.7917 32.874C67.1163 32.1391 66.7588 31.0665 66.7588 29.6761C66.7588 28.2857 67.1163 27.2727 67.8115 26.6172C68.5067 25.9618 69.619 25.5645 71.1088 25.4056L75.5779 24.9686V23.7371C75.5779 22.7638 75.3594 22.0686 74.9423 21.6515C74.5252 21.2344 73.9492 21.0159 73.2341 21.0159H67.6129V19.1289H73.0752C74.6841 19.1289 75.856 19.5063 76.5909 20.2413C77.3656 21.0159 77.743 22.1878 77.743 23.757ZM68.9636 29.5768C68.9636 31.3247 69.6786 32.1987 71.1286 32.1987C72.4197 32.1987 73.6909 31.9802 74.9423 31.5432L75.5978 31.3247V26.6172L71.3868 27.0145C70.5327 27.0939 69.917 27.3323 69.5396 27.7494C69.1423 28.1665 68.9636 28.7624 68.9636 29.5768Z" fill="white"/>
<path d="M86.0857 21.0753C84.0199 21.0753 82.9871 21.7903 82.9871 23.2403C82.9871 23.8958 83.2254 24.3725 83.7021 24.6506C84.1788 24.9287 85.2514 25.2067 86.9596 25.5047C88.648 25.8026 89.8398 26.2197 90.5548 26.7362C91.25 27.2725 91.6075 28.2656 91.6075 29.7355C91.6075 31.2053 91.1308 32.2779 90.1973 32.9533C89.2637 33.6286 87.8932 33.9861 86.0857 33.9861C84.9138 33.9861 80.9809 33.5491 80.9809 33.5491L81.1001 31.7019C83.3645 31.9204 84.9932 32.0793 86.0857 32.0793C87.1781 32.0793 88.0322 31.9005 88.6082 31.543C89.1843 31.1855 89.4822 30.6094 89.4822 29.7752C89.4822 28.941 89.2439 28.3848 88.7473 28.0869C88.2507 27.7889 87.1781 27.5108 85.4898 27.2526C83.8213 26.9944 82.6295 26.5971 81.9343 26.0807C81.2391 25.5643 80.8816 24.6109 80.8816 23.2403C80.8816 21.8499 81.3782 20.8369 82.3514 20.1616C83.3247 19.5061 84.5562 19.1684 86.0062 19.1684C87.1583 19.1684 91.1904 19.4664 91.1904 19.4664V21.3335C89.0254 21.2342 87.2973 21.0753 86.0857 21.0753Z" fill="white"/>
<path d="M101.877 21.3135H97.3478V28.1265C97.3478 29.7552 97.467 30.8278 97.7053 31.3443C97.9437 31.8607 98.4998 32.1189 99.3937 32.1189L101.936 31.9402L102.075 33.7079C100.804 33.9264 99.8306 34.0258 99.1752 34.0258C97.6855 34.0258 96.6724 33.6682 96.0964 32.9333C95.5204 32.2182 95.2423 30.8278 95.2423 28.8018V21.3135H93.2163V19.4663H95.2423V15.0964H97.3478V19.4464H101.877V21.3135Z" fill="white"/>
<path d="M104.856 17.6389V15.1561H107.001V17.6389H104.856ZM104.856 33.8669V19.4464H107.001V33.8669H104.856Z" fill="white"/>
<path d="M116.238 19.1684C116.873 19.1684 117.926 19.2876 119.436 19.5061L120.111 19.5855L120.031 21.3136C118.502 21.1349 117.39 21.0554 116.675 21.0554C115.066 21.0554 113.953 21.4328 113.377 22.2074C112.801 22.9821 112.503 24.3924 112.503 26.478C112.503 28.5636 112.781 30.0136 113.318 30.8279C113.854 31.6423 114.986 32.0594 116.694 32.0594L120.051 31.8012L120.131 33.569C118.363 33.8272 117.052 33.9663 116.178 33.9663C113.953 33.9663 112.424 33.3902 111.57 32.2581C110.716 31.1259 110.299 29.1992 110.299 26.4978C110.299 23.7965 110.755 21.8896 111.669 20.7972C112.603 19.7246 114.112 19.1684 116.238 19.1684Z" fill="white"/>
<defs>
<filter id="filter0_d_267_493" x="160.728" y="0.514313" width="48.2725" height="48.6697" filterUnits="userSpaceOnUse" color-interpolation-filters="sRGB">
<feFlood flood-opacity="0" result="BackgroundImageFix"/>
<feColorMatrix in="SourceAlpha" type="matrix" values="0 0 0 0 0 0 0 0 0 0 0 0 0 0 0 0 0 0 127 0" result="hardAlpha"/>
<feOffset/>
<feGaussianBlur stdDeviation="6"/>
<feComposite in2="hardAlpha" operator="out"/>
<feColorMatrix type="matrix" values="0 0 0 0 0.490196 0 0 0 0 0.886275 0 0 0 0 0.819608 0 0 0 1 0"/>
<feBlend mode="normal" in2="BackgroundImageFix" result="effect1_dropShadow_267_493"/>
<feBlend mode="normal" in="SourceGraphic" in2="effect1_dropShadow_267_493" result="shape"/>
</filter>
<filter id="filter1_d_267_493" x="133.409" y="0.688141" width="48.6279" height="48.6349" filterUnits="userSpaceOnUse" color-interpolation-filters="sRGB">
<feFlood flood-opacity="0" result="BackgroundImageFix"/>
<feColorMatrix in="SourceAlpha" type="matrix" values="0 0 0 0 0 0 0 0 0 0 0 0 0 0 0 0 0 0 127 0" result="hardAlpha"/>
<feOffset/>
<feGaussianBlur stdDeviation="6"/>
<feComposite in2="hardAlpha" operator="out"/>
<feColorMatrix type="matrix" values="0 0 0 0 0.490196 0 0 0 0 0.886275 0 0 0 0 0.819608 0 0 0 1 0"/>
<feBlend mode="normal" in2="BackgroundImageFix" result="effect1_dropShadow_267_493"/>
<feBlend mode="normal" in="SourceGraphic" in2="effect1_dropShadow_267_493" result="shape"/>
</filter>
</defs>
</svg>
