<svg width="207" height="42" viewBox="0 0 207 42" fill="none" xmlns="http://www.w3.org/2000/svg">
<path d="M132.883 8.67944H132.227V35.6135H132.883V8.67944Z" fill="white" stroke="white" stroke-width="1.9268" stroke-miterlimit="10"/>
<path d="M189.055 17.5787L180.951 9.5144L172.767 17.7575L172.728 17.7972V34.1841L180.951 26.0602L180.971 26.08L181.09 25.9609L189.035 33.7868L197 25.9211V9.7329L189.055 17.5787ZM195.312 25.2458L189.015 31.4629L183.314 25.8417L190.127 18.8897L195.312 13.7651V25.2458Z" fill="white"/>
<path d="M170.026 21.3329C169.708 15.2747 165.021 10.3686 159.042 9.75281C159.022 9.75281 159.022 9.75281 159.002 9.75281C158.963 9.75281 158.923 9.75281 158.863 9.73294C155.368 9.435 151.752 10.6268 149.071 13.2884C146.171 16.1685 144.999 20.1212 145.535 23.8753C146.429 29.7547 151.474 34.2636 157.612 34.3232C160.77 34.3232 163.928 33.1115 166.352 30.7081C168.954 28.1458 170.165 24.7096 170.026 21.3329ZM157.552 32.615C155.268 32.615 153.083 31.8801 151.276 30.5691L166.312 15.6521C169.331 19.863 168.934 25.7623 165.14 29.5164C163.114 31.5225 160.413 32.615 157.552 32.615Z" fill="white"/>
<path d="M41.3347 21.5711C41.3347 18.1149 39.1895 15.0759 35.9518 13.904C36.0909 13.1691 36.1703 12.4342 36.1703 11.6794C36.1703 5.2438 30.9265 0 24.4909 0C20.7368 0 17.2211 1.80752 15.0163 4.84654C13.9437 4.0123 12.6129 3.55545 11.2225 3.55545C7.80611 3.55545 5.02531 6.33626 5.02531 9.75267C5.02531 10.5075 5.16435 11.2225 5.42257 11.9177C2.20478 13.0698 0 16.1882 0 19.6245C0 23.1005 2.16505 26.1594 5.4027 27.3313C5.26366 28.0464 5.18421 28.8012 5.18421 29.556C5.18421 35.9915 10.4081 41.2155 16.8437 41.2155C20.6177 41.2155 24.1135 39.4079 26.2985 36.3491C27.3909 37.2032 28.7217 37.6799 30.0923 37.6799C33.5087 37.6799 36.2895 34.8991 36.2895 31.4827C36.2895 30.7279 36.1504 29.9929 35.8922 29.3176C39.1299 28.1258 41.3347 25.0272 41.3347 21.5711Z" fill="white"/>
<path d="M16.2279 17.7381L25.2854 21.8696L34.4223 13.8648C34.5613 13.2094 34.6209 12.5539 34.6209 11.8587C34.6209 6.23749 30.0525 1.64917 24.4114 1.64917C21.0347 1.64917 17.8964 3.29779 15.9896 6.07859L14.48 13.9642L16.2279 17.7381Z" fill="#FEC514"/>
<path d="M6.87295 27.3115C6.73391 27.9669 6.67432 28.6621 6.67432 29.3573C6.67432 34.9984 11.2626 39.5867 16.9037 39.5867C20.3002 39.5867 23.4584 37.9182 25.3653 35.0977L26.8749 27.2519L24.8488 23.4183L15.7715 19.2869L6.87295 27.3115Z" fill="#00BFB3"/>
<path d="M6.81308 11.6588L13.0103 13.1287L14.361 6.07737C13.5069 5.4219 12.474 5.08423 11.4014 5.08423C8.70005 5.08423 6.51514 7.26915 6.51514 9.9705C6.51514 10.5465 6.61445 11.1225 6.81308 11.6588Z" fill="#F04E98"/>
<path d="M6.27651 13.1294C3.51557 14.0431 1.58887 16.7047 1.58887 19.6246C1.58887 22.4649 3.35666 25.0074 5.97856 26.0204L14.6785 18.1547L13.0895 14.7383L6.27651 13.1294Z" fill="#1BA9F5"/>
<path d="M26.9541 35.0976C27.8082 35.7531 28.8411 36.1106 29.9137 36.1106C32.615 36.1106 34.7999 33.9257 34.7999 31.2244C34.7999 30.6285 34.7006 30.0525 34.502 29.5162L28.3048 28.0662L26.9541 35.0976Z" fill="#93C90E"/>
<path d="M28.2055 26.4572L35.0184 28.0462C37.7992 27.1325 39.7259 24.4709 39.7259 21.551C39.7259 18.7106 37.9581 16.1682 35.3164 15.175L26.3979 22.9812L28.2055 26.4572Z" fill="#0077CC"/>
<path d="M57.801 28.9402L58.6353 28.8607L58.6949 30.5491C56.5298 30.847 54.6826 31.0059 53.1332 31.0059C51.0874 31.0059 49.6374 30.4101 48.7833 29.2183C47.9292 28.0265 47.4922 26.1793 47.4922 23.6765C47.4922 18.691 49.4785 16.1882 53.451 16.1882C55.3777 16.1882 56.8079 16.7245 57.7613 17.7971C58.7147 18.8697 59.1914 20.5581 59.1914 22.8622L59.0722 24.4909H49.6771C49.6771 26.0601 49.9552 27.232 50.5312 27.9868C51.1072 28.7416 52.1004 29.119 53.5106 29.119C54.901 29.0991 56.3312 29.0395 57.801 28.9402ZM57.0264 22.743C57.0264 20.995 56.7483 19.7635 56.1921 19.0485C55.636 18.3334 54.7223 17.956 53.451 17.956C52.1798 17.956 51.2463 18.3334 50.6107 19.0882C49.975 19.843 49.6374 21.0546 49.6374 22.743H57.0264Z" fill="white"/>
<path d="M62.1509 30.867V12.1165H64.2961V30.867H62.1509Z" fill="white"/>
<path d="M77.743 20.757V27.9473C77.743 28.6624 79.5108 28.6227 79.5108 28.6227L79.4114 30.5096C77.9019 30.5096 76.6704 30.6288 75.9156 29.9137C74.2074 30.6685 72.4992 30.9863 70.791 30.9863C69.48 30.9863 68.4869 30.6089 67.7917 29.874C67.1163 29.1391 66.7588 28.0665 66.7588 26.6761C66.7588 25.2857 67.1163 24.2727 67.8115 23.6172C68.5067 22.9617 69.619 22.5645 71.1088 22.4056L75.5779 21.9686V20.7371C75.5779 19.7638 75.3594 19.0686 74.9423 18.6515C74.5252 18.2344 73.9492 18.0159 73.2341 18.0159H67.6129V16.1289H73.0752C74.6841 16.1289 75.856 16.5063 76.5909 17.2412C77.3656 18.0159 77.743 19.1878 77.743 20.757ZM68.9636 26.5768C68.9636 28.3247 69.6786 29.1987 71.1286 29.1987C72.4197 29.1987 73.6909 28.9802 74.9423 28.5432L75.5978 28.3247V23.6172L71.3868 24.0145C70.5327 24.0939 69.917 24.3323 69.5396 24.7494C69.1423 25.1665 68.9636 25.7624 68.9636 26.5768Z" fill="white"/>
<path d="M86.0859 18.0753C84.0202 18.0753 82.9873 18.7904 82.9873 20.2403C82.9873 20.8958 83.2257 21.3725 83.7024 21.6506C84.1791 21.9287 85.2517 22.2068 86.9599 22.5047C88.6482 22.8027 89.84 23.2198 90.5551 23.7362C91.2503 24.2725 91.6078 25.2657 91.6078 26.7355C91.6078 28.2054 91.1311 29.278 90.1975 29.9533C89.264 30.6286 87.8934 30.9862 86.0859 30.9862C84.914 30.9862 80.9812 30.5492 80.9812 30.5492L81.1003 28.7019C83.3647 28.9204 84.9935 29.0793 86.0859 29.0793C87.1784 29.0793 88.0325 28.9006 88.6085 28.543C89.1845 28.1855 89.4825 27.6095 89.4825 26.7752C89.4825 25.941 89.2441 25.3848 88.7475 25.0869C88.251 24.7889 87.1784 24.5109 85.49 24.2526C83.8215 23.9944 82.6298 23.5972 81.9346 23.0807C81.2394 22.5643 80.8818 21.6109 80.8818 20.2403C80.8818 18.8499 81.3784 17.8369 82.3517 17.1616C83.325 16.5061 84.5565 16.1685 86.0065 16.1685C87.1585 16.1685 91.1907 16.4664 91.1907 16.4664V18.3335C89.0256 18.2342 87.2975 18.0753 86.0859 18.0753Z" fill="white"/>
<path d="M101.877 18.3135H97.3483V25.1265C97.3483 26.7552 97.4674 27.8278 97.7058 28.3443C97.9442 28.8607 98.5003 29.1189 99.3941 29.1189L101.937 28.9402L102.076 30.7079C100.804 30.9264 99.8311 31.0258 99.1757 31.0258C97.6859 31.0258 96.6729 30.6682 96.0969 29.9333C95.5209 29.2182 95.2428 27.8278 95.2428 25.8018V18.3135H93.2168V16.4663H95.2428V12.0964H97.3483V16.4464H101.877V18.3135Z" fill="white"/>
<path d="M104.856 14.6389V12.156H107.002V14.6389H104.856ZM104.856 30.8668V16.4464H107.002V30.8668H104.856Z" fill="white"/>
<path d="M116.238 16.1685C116.873 16.1685 117.926 16.2876 119.436 16.5061L120.111 16.5856L120.032 18.3136C118.502 18.1349 117.39 18.0554 116.675 18.0554C115.066 18.0554 113.954 18.4328 113.378 19.2075C112.802 19.9821 112.504 21.3924 112.504 23.478C112.504 25.5636 112.782 27.0136 113.318 27.828C113.854 28.6423 114.986 29.0595 116.695 29.0595L120.051 28.8012L120.131 30.569C118.363 30.8273 117.052 30.9663 116.178 30.9663C113.954 30.9663 112.424 30.3903 111.57 29.2581C110.716 28.1259 110.299 26.1992 110.299 23.4979C110.299 20.7965 110.756 18.8897 111.669 17.7972C112.603 16.7246 114.113 16.1685 116.238 16.1685Z" fill="white"/>
</svg>
